<svg width="27" height="27" viewBox="0 0 27 27" fill="none" xmlns="http://www.w3.org/2000/svg"><path fill-rule="evenodd" clip-rule="evenodd" d="M9.867 25.644c6.975 1.739 14.038-2.505 15.777-9.478C27.383 9.192 23.14 2.128 16.164.39 9.192-1.35 2.129 2.895.39 9.87c-1.74 6.972 2.505 14.036 9.477 15.774zM15.89 7.878c1.804.621 3.123 1.552 2.864 3.284-.188 1.268-.891 1.882-1.824 2.097 1.281.668 1.933 1.69 1.312 3.464-.77 2.203-2.602 2.389-5.038 1.928l-.591 2.369-1.429-.356.584-2.337a56.64 56.64 0 0 1-1.139-.296l-.585 2.348-1.427-.356.59-2.373-.369-.096c-.214-.056-.43-.112-.648-.166l-1.859-.464.709-1.634s1.053.28 1.039.259c.404.1.583-.164.654-.34l.934-3.744.121.03h.001l.029.008a1.155 1.155 0 0 0-.149-.048l.667-2.673c.017-.304-.087-.686-.666-.83.023-.016-1.037-.259-1.037-.259l.38-1.525 1.97.492-.002.007c.296.074.601.144.912.214l.586-2.346 1.427.356-.573 2.3c.383.087.768.176 1.144.27l.57-2.285 1.428.356-.585 2.346zm.041 3.259c-.368 1.479-2.488.913-3.46.654a16.187 16.187 0 0 0-.234-.062l.71-2.851c.082.02.182.042.296.068 1.006.222 3.066.679 2.688 2.191zm-4.559 5.248c1.166.308 3.713.98 4.118-.647.415-1.664-2.056-2.218-3.262-2.488-.134-.03-.253-.057-.35-.081l-.784 3.144.278.072z" fill="#FFC567"/></svg>