<svg width="27" height="27" viewBox="0 0 27 27" fill="none" xmlns="http://www.w3.org/2000/svg"><path fill-rule="evenodd" clip-rule="evenodd" d="M25.644 16.166c-1.739 6.973-8.802 11.217-15.777 9.478C2.895 23.906-1.35 16.842.39 9.87 2.128 2.895 9.192-1.349 16.164.39c6.974 1.74 11.219 8.803 9.48 15.777z" fill="#BCBCBC"/><path fill-rule="evenodd" clip-rule="evenodd" d="M10.608 9.775c-.462.526-.752 1.238-.87 2.136h5.63c-.059-.958-.349-1.684-.87-2.18-.521-.496-1.167-.744-1.939-.744-.839 0-1.49.263-1.95.788zm5.066-3.127c.924.433 1.686 1.115 2.288 2.047.542.822.894 1.775 1.055 2.86.093.636.131 1.55.114 2.746H9.648c.051 1.39.488 2.364 1.31 2.924.5.347 1.101.52 1.805.52.745 0 1.351-.211 1.818-.635.254-.229.478-.546.673-.953h3.7c-.094.822-.522 1.657-1.285 2.504-1.186 1.348-2.847 2.021-4.983 2.021-1.762 0-3.317-.568-4.665-1.703C6.674 17.843 6 15.996 6 13.436c0-2.398.608-4.237 1.824-5.517C9.04 6.64 10.62 6 12.56 6c1.153 0 2.191.216 3.115.648z" fill="#fff"/></svg>