<svg width="14" height="18" viewBox="0 0 14 18" fill="none" xmlns="http://www.w3.org/2000/svg"><path fill-rule="evenodd" clip-rule="evenodd" d="M13.25 2.25a.625.625 0 1 1 0 1.25h-.009a.13.13 0 0 0-.13.125l-.45 12.15a1.67 1.67 0 0 1-1.661 1.6H3a1.672 1.672 0 0 1-1.662-1.6l-.45-12.15a.13.13 0 0 0-.13-.125H.75a.625.625 0 1 1 0-1.25h3.047c.069 0 .14-.055.158-.12l.204-.713C4.37.686 5.112.125 5.873.125h2.254c.761 0 1.505.56 1.714 1.292l.204.714a.172.172 0 0 0 .158.119h3.047zM6.5 5.75v8.5a.5.5 0 0 0 1 0v-8.5a.5.5 0 0 0-1 0zM4 14.265l-.25-8.5a.5.5 0 1 1 1-.03l.25 8.5a.5.5 0 1 1-1 .03zm5.25-8.53l-.25 8.5a.5.5 0 1 0 1 .03l.25-8.5a.5.5 0 0 0-1-.03zM8.652 2.25H5.348c-.07 0-.112-.052-.093-.118l.106-.371c.056-.195.309-.386.512-.386h2.254c.203 0 .456.19.512.386l.106.37c.018.066-.022.119-.093.119z" fill="#363636"/></svg>