<svg width="36" height="36" viewBox="0 0 36 36" fill="none" xmlns="http://www.w3.org/2000/svg"><path fill-rule="evenodd" clip-rule="evenodd" d="M18.45 31.5c8.201 0 14.85-6.649 14.85-14.85S26.652 1.8 18.45 1.8C10.25 1.8 3.6 8.449 3.6 16.65S10.25 31.5 18.45 31.5z" fill="#fff"/><path fill-rule="evenodd" clip-rule="evenodd" d="M19.789 22.444l-4.584-4.888-8.944 4.888L16.099 12l4.696 4.889L29.627 12 19.79 22.444zM18 0C8.059 0 0 7.462 0 16.667c0 5.245 2.618 9.923 6.708 12.978V36l6.129-3.364a19.34 19.34 0 0 0 5.163.697c9.941 0 18-7.462 18-16.666C36 7.462 27.941 0 18 0z" fill="#4670A9"/></svg>