<svg width="30" height="30" viewBox="0 0 30 30" fill="none" xmlns="http://www.w3.org/2000/svg"><path fill-rule="evenodd" clip-rule="evenodd" d="M15 0C6.715 0 0 6.715 0 15s6.715 15 15 15c8.284 0 15-6.715 15-15S23.284 0 15 0zm.262 4.38a3.959 3.959 0 1 1-.001 7.916 3.959 3.959 0 0 1 0-7.916zm-.94 23.855c.222.023.448.034.678.034 7.328 0 13.27-5.94 13.27-13.269 0-7.1-5.58-12.88-12.591-13.236A6.636 6.636 0 0 1 15 15a6.635 6.635 0 0 0-.678 13.235z" fill="#363636"/><path d="M14.667 26a4 4 0 1 0 0-8 4 4 0 0 0 0 8z" fill="#363636"/></svg>