<svg width="32" height="27" viewBox="0 0 32 27" fill="none" xmlns="http://www.w3.org/2000/svg"><mask id="path-1-inside-1" fill="#fff"><path fill-rule="evenodd" clip-rule="evenodd" d="M7 0a3 3 0 0 0-3 3v6h19a2 2 0 0 1 2 2v10h4a3 3 0 0 0 3-3V3a3 3 0 0 0-3-3H7z"/></mask><path d="M4 9H2v2h2V9zm21 12h-2v2h2v-2zM6 3a1 1 0 0 1 1-1v-4a5 5 0 0 0-5 5h4zm0 6V3H2v6h4zm-2 2h19V7H4v4zm19 0h4a4 4 0 0 0-4-4v4zm0 0v10h4V11h-4zm6 8h-4v4h4v-4zm1-1a1 1 0 0 1-1 1v4a5 5 0 0 0 5-5h-4zm0-15v15h4V3h-4zm-1-1a1 1 0 0 1 1 1h4a5 5 0 0 0-5-5v4zM7 2h22v-4H7v4z" fill="#363636" mask="url(#path-1-inside-1)"/><path fill="#363636" d="M4 20h5v2H4zm7 0h5v2h-5zm7 0h5v2h-5z"/><path fill-rule="evenodd" clip-rule="evenodd" d="M2.89 7C1.301 7 0 8.283 0 9.866v14.268C0 25.718 1.294 27 2.89 27h21.22c1.588 0 2.89-1.283 2.89-2.866V9.866C27 8.282 25.706 7 24.11 7H2.89zM2 24.05V9.95c0-.523.434-.95.955-.95h21.09c.526 0 .955.423.955.95v14.1c0 .523-.434.95-.955.95H2.955A.951.951 0 0 1 2 24.05z" fill="#363636"/><path fill-rule="evenodd" clip-rule="evenodd" d="M6.5 17a2.5 2.5 0 1 0 0-5 2.5 2.5 0 0 0 0 5z" fill="#363636"/></svg>