<svg width="31" height="34" viewBox="0 0 31 34" fill="none" xmlns="http://www.w3.org/2000/svg"><mask id="path-1-inside-1" fill="#fff"><path fill-rule="evenodd" clip-rule="evenodd" d="M16.682 11.414a2 2 0 0 1 2.828 0l10.487 10.487a.169.169 0 0 1 .046.157.169.169 0 0 1-.046.158L19.51 32.703a2 2 0 0 1-2.828 0l-4.446-4.447a.333.333 0 0 1 0-.47L13.02 27H5a2 2 0 0 1-2-2v-6a2 2 0 0 1 2-2h7.904l-.668-.668a.333.333 0 0 1 0-.471l4.446-4.447z"/></mask><path d="M19.51 11.414l-1.414 1.414 1.414-1.414zm-2.828 0l1.414 1.414-1.414-1.414zm13.315 10.487l-1.414 1.415 1.414-1.415zm.046.157l-1.95.445-.102-.444.102-.445 1.95.444zm-.046.158l-1.414-1.414 1.414 1.414zM19.51 32.703l1.415 1.414-1.415-1.414zm-2.828 0l-1.414 1.414 1.414-1.414zm-4.446-4.918L13.65 29.2l-1.414-1.414zM13.02 27v-2h4.828l-3.414 3.414L13.02 27zm-.117-10l1.414-1.414L17.732 19h-4.828v-2zm-.668-1.14l-1.415-1.414 1.415 1.415zm5.86-3.032L15.268 10a4 4 0 0 1 5.657 0l-2.829 2.828zm10.487 10.488L18.096 12.828 20.925 10l10.487 10.487-2.829 2.829zm-.49-1.702a1.83 1.83 0 0 0 .49 1.701l2.829-2.828c.549.55.74 1.319.58 2.016l-3.9-.889zm.49-.812a1.831 1.831 0 0 0-.49 1.701l3.9-.889a2.169 2.169 0 0 1-.581 2.016l-2.829-2.828zM18.096 31.289l10.487-10.487 2.829 2.828-10.487 10.487-2.829-2.828zm0 0l2.829 2.828a4 4 0 0 1-5.657 0l2.828-2.828zm-4.446-4.447l4.446 4.447-2.828 2.828-4.447-4.446 2.829-2.829zm0 2.357c.65-.65.65-1.706 0-2.357l-2.829 2.829a2.333 2.333 0 0 1 0-3.3l2.829 2.828zm.785-.785l-.785.785-2.829-2.828.786-.785 2.828 2.828zM5 25h8.02v4H5v-4zm0 0v4a4 4 0 0 1-4-4h4zm0-6v6H1v-6h4zm0 0H1a4 4 0 0 1 4-4v4zm7.904 0H5v-4h7.904v4zm.746-4.082l.668.668-2.829 2.828-.668-.668 2.829-2.828zm0 2.357c.65-.651.65-1.706 0-2.357l-2.829 2.828a2.333 2.333 0 0 1 0-3.3l2.829 2.829zm4.446-4.447l-4.446 4.447-2.829-2.829L15.268 10l2.828 2.828z" fill="#363636" mask="url(#path-1-inside-1)"/><mask id="path-3-inside-2" fill="#fff"><path fill-rule="evenodd" clip-rule="evenodd" d="M13.608 1.414a2 2 0 0 0-2.828 0L.293 11.901a.169.169 0 0 0-.046.158.169.169 0 0 0 .046.157L7.077 19h8.103a3 3 0 0 1 .474-3.267l1.823-2.05a1 1 0 0 1 1.482-.014L22.034 17H25a2 2 0 0 0 2-2V9a2 2 0 0 0-2-2h-7.614l.668-.668a.333.333 0 0 0 0-.471l-4.446-4.447z"/></mask><path d="M10.78 1.414l1.414 1.414-1.414-1.414zm2.828 0l-1.414 1.414 1.414-1.414zM.293 11.901l1.414 1.415L.293 11.9zm-.046.158l1.95.444.102-.444-.102-.445-1.95.444zm.046.157l1.414-1.414-1.414 1.414zM7.077 19l-1.414 1.414.585.586h.829v-2zm8.103 0v2h3.145l-1.334-2.848L15.18 19zm.474-3.267l1.495 1.328-1.495-1.328zm1.823-2.05l-1.495-1.33 1.495 1.33zm1.482-.014l1.47-1.357-1.47 1.357zM22.034 17l-1.47 1.357.595.643h.875v-2zM17.386 7l-1.414-1.414L12.558 9h4.828V7zm.669-1.14l1.414-1.414-1.415 1.415zm-5.861-3.032L15.022 0a4 4 0 0 0-5.657 0l2.829 2.828zM1.707 13.315L12.194 2.829 9.365 0-1.122 10.487l2.829 2.829zm.49-1.7a1.831 1.831 0 0 1-.49 1.7l-2.829-2.828a2.169 2.169 0 0 0-.58 2.016l3.9-.889zm-.49-.813c.464.463.624 1.114.49 1.701l-3.9-.889a2.169 2.169 0 0 0 .581 2.016l2.829-2.828zm6.784 6.784l-6.784-6.784-2.829 2.828 6.785 6.784 2.828-2.828zM7.077 21h8.103v-4H7.077v4zm7.082-6.596a5 5 0 0 0-.79 5.444l3.622-1.696a1 1 0 0 1 .158-1.09l-2.99-2.658zm1.823-2.05l-1.822 2.05 2.99 2.657 1.822-2.05-2.99-2.657zm4.447-.042a3 3 0 0 0-4.447.042l2.99 2.657a1 1 0 0 1-1.483.014l2.94-2.713zm3.075 3.331l-3.075-3.331-2.94 2.713 3.076 3.332 2.939-2.714zM25 15h-2.966v4H25v-4zm0 0v4a4 4 0 0 0 4-4h-4zm0-6v6h4V9h-4zm0 0h4a4 4 0 0 0-4-4v4zm-7.614 0H25V5h-7.614v4zm-.746-4.082l-.668.668 2.829 2.828.668-.668-2.829-2.828zm0 2.357a1.667 1.667 0 0 1 0-2.357l2.829 2.828a2.333 2.333 0 0 0 0-3.3L16.64 7.275zm-4.446-4.447l4.446 4.447 2.829-2.829L15.022 0l-2.828 2.828z" fill="#363636" mask="url(#path-3-inside-2)"/></svg>