<svg width="34" height="30" viewBox="0 0 34 30" fill="none" xmlns="http://www.w3.org/2000/svg"><mask id="path-1-inside-1" fill="#fff"><path fill-rule="evenodd" clip-rule="evenodd" d="M34 15c0 8.284-6.716 15-15 15a14.934 14.934 0 0 1-9.002-3H3c-1.803.041-2.875-1.997-1.82-3.459l3.336-4.625A15.02 15.02 0 0 1 4 15C4 6.716 10.716 0 19 0c8.284 0 15 6.716 15 15z"/></mask><path d="M9.998 27l1.202-1.599-.534-.401h-.668v2zM3 27v-2h-.046L3 27zm-1.82-3.459l-1.622-1.17 1.622 1.17zm3.336-4.625l1.622 1.17.557-.772-.248-.919-1.93.521zM19 32c9.389 0 17-7.611 17-17h-4c0 7.18-5.82 13-13 13v4zM8.797 28.599A16.934 16.934 0 0 0 19 32v-4c-2.93 0-5.628-.967-7.8-2.599l-2.403 3.198zM3 29h6.998v-4H3v4zm-3.442-6.629C-2.464 25.173-.408 29.08 3.046 29l-.092-4c-.059.002-.084-.011-.098-.02a.2.2 0 0 1-.068-.077.2.2 0 0 1-.025-.1c0-.016.004-.044.039-.092l-3.244-2.34zm3.336-4.625l-3.336 4.625 3.244 2.34 3.336-4.625-3.244-2.34zM2 15c0 1.532.203 3.02.585 4.437l3.862-1.042A13.02 13.02 0 0 1 6 15H2zM19-2C9.61-2 2 5.611 2 15h4C6 7.82 11.82 2 19 2v-4zm17 17c0-9.389-7.611-17-17-17v4c7.18 0 13 5.82 13 13h4z" fill="#363636" mask="url(#path-1-inside-1)"/><path d="M10.548 21.173a5.656 5.656 0 0 1 .556-2.366c.338-.802 1.134-1.652 2.39-2.548 1.09-.78 1.796-1.34 2.117-1.677.493-.526.74-1.101.74-1.727 0-.509-.142-.932-.424-1.27-.282-.337-.686-.506-1.212-.506-.72 0-1.21.268-1.47.805-.149.31-.237.803-.265 1.478h-2.3c.04-1.024.225-1.851.557-2.482.63-1.201 1.751-1.801 3.362-1.801 1.272 0 2.285.354 3.038 1.062.752.703 1.129 1.635 1.129 2.797 0 .891-.266 1.683-.797 2.374-.349.46-.922.972-1.719 1.536l-.946.672c-.592.421-.999.725-1.22.914a2.721 2.721 0 0 0-.548.655h5.255v2.084h-8.243zm17.612-2.59h-1.362v2.59h-2.316v-2.59h-4.764v-2.067l4.424-7.305h2.656v7.52h1.362v1.852zm-3.678-1.851v-5.196l-3.013 5.196h3.013z" fill="#363636"/></svg>