<svg width="30" height="30" viewBox="0 0 30 30" fill="none" xmlns="http://www.w3.org/2000/svg"><path d="M29 15c0 7.732-6.268 14-14 14S1 22.732 1 15 7.268 1 15 1s14 6.268 14 14z" stroke="#363636" stroke-width="2"/><mask id="path-2-inside-1" fill="#fff"><path fill-rule="evenodd" clip-rule="evenodd" d="M25.454 23.636c0-2.12-4.68-5.454-10.454-5.454-5.774 0-10.455 3.179-10.455 5.454"/></mask><path d="M27.454 23.636c0-1.226-.643-2.286-1.31-3.056-.706-.815-1.659-1.563-2.747-2.195-2.181-1.267-5.14-2.203-8.397-2.203v4c2.516 0 4.785.73 6.388 1.662.803.466 1.381.95 1.733 1.355.391.452.334.603.334.437h4zM15 16.182c-3.239 0-6.193.887-8.383 2.137-1.094.623-2.056 1.37-2.77 2.204-.687.803-1.302 1.877-1.302 3.113h4c0 .1-.03-.078.341-.511.345-.403.914-.876 1.712-1.332 1.594-.909 3.866-1.611 6.402-1.611v-4z" fill="#363636" mask="url(#path-2-inside-1)"/><path d="M19.91 9.61c0 1.147-.518 2.632-1.403 3.833-.894 1.212-1.996 1.92-3.053 1.92-1.056 0-2.158-.708-3.052-1.92C11.518 12.242 11 10.757 11 9.61c0-2.176 1.923-4.065 4.454-4.065 2.532 0 4.455 1.889 4.455 4.065z" stroke="#363636" stroke-width="2"/></svg>