<svg width="12" height="19" viewBox="0 0 12 19" fill="none" xmlns="http://www.w3.org/2000/svg"><path fill-rule="evenodd" clip-rule="evenodd" d="M5.7 9.618a4.804 4.804 0 0 0 4.797-4.809A4.803 4.803 0 0 0 5.7 0 4.802 4.802 0 0 0 .904 4.809 4.803 4.803 0 0 0 5.7 9.618zm0-7.175c1.304 0 2.36 1.06 2.36 2.366A2.362 2.362 0 0 1 5.7 7.174 2.362 2.362 0 0 1 3.34 4.81 2.363 2.363 0 0 1 5.7 2.443zm3.512 7.55c.997-.788 1.747-.334 2.017.211.472.952-.061 1.41-1.265 2.186-1.02.655-2.417.904-3.33.999l.764.765 2.827 2.834c.429.43.429 1.128 0 1.56l-.13.13a1.1 1.1 0 0 1-1.556 0l-1.158-1.162-1.668-1.673-2.827 2.834c-.429.43-1.125.43-1.555 0l-.13-.13a1.104 1.104 0 0 1 0-1.559l2.827-2.834.761-.763c-.912-.092-2.325-.34-3.353-1.001C.232 11.614-.301 11.156.17 10.204c.27-.545 1.02-.999 2.018-.212 1.347 1.065 3.51 1.065 3.51 1.065s2.165 0 3.513-1.065z" fill="#fff"/></svg>