<svg width="25" height="28" viewBox="0 0 25 28" fill="none" xmlns="http://www.w3.org/2000/svg"><path fill-rule="evenodd" clip-rule="evenodd" d="M24.719 26.422c-.71-1.506-1.97-2.61-3.335-3.458-.473-.294-1.007-.501-1.473-.66-1.071-.361-2.108-.445-3.316-.66-.982-.175-1.758-.596-2.591-1.185-.434-.309-.788-.732-1.085-1.181-.055-.09-.332-.442-.304-.563 0 0-.193.805.19 1.935-3.516-.164-6.597-2.195-8.009-4.656-2.598-4.53-1.682-10.02 1.782-12.445 3.463-2.425 8.744-.714 11.57 3.664 1.775 2.747 2.229 5.943 1.469 8.543l-.019.06c-1.502-1.139-2.874-.558-2.874-.558 1.506-.162 2.696 1.086 2.696 1.086.174.162.342.341.495.54.034.049.07.098.103.15.395.558.64 1.178.745 1.807 2.989-3.95 3.482-9.421.838-13.67C18.232-.245 11.049-1.628 5.562 2.078c-5.49 3.709-7.207 11.1-3.836 16.515 2.768 4.456 9.262 5.814 12.985 4.587 1.408-.462 6.227-.9 9.582 3.228 0 0 .29.345.447.739 0 0 .047.138.171.071.033-.018.125-.13-.192-.796zm-6.411-7.251l-.011-.006c-.009 0-.015-.003-.02-.005l-.025-.008c-.005 0-.012 0-.014-.002l-.04-.012a.685.685 0 0 0-.467.079c-.31.196-.357.64-.103.993a.96.96 0 0 0 .461.336c.005.001.012.005.017.005.008.004.017.004.024.006.007 0 .01.003.015.004.014.003.025.008.039.009a.65.65 0 0 0 .467-.078c.312-.196.36-.637.105-.99a.908.908 0 0 0-.448-.331zm1.652-.855c-.435-.105-.474.227-.365.444.242.506.571.894.812.97.23.091.503-.117.329-.624-.075-.22-.332-.679-.776-.79z" fill="#FFB134"/></svg>