<svg width="25" height="25" viewBox="0 0 25 25" fill="none" xmlns="http://www.w3.org/2000/svg"><path fill-rule="evenodd" clip-rule="evenodd" d="M17.08 6.994a.339.339 0 0 0-.004.47c2.706 2.99 2.271 7.836-1.307 10.24-2.239 1.506-5.254 1.506-7.488.006A6.808 6.808 0 0 1 7.23 7.226a6.775 6.775 0 0 1 3.257-1.805l.003 2.534c-.002.3.362.452.575.239L14.18 5.05a.337.337 0 0 0 0-.478l-3.126-3.126a.337.337 0 0 0-.575.24l.003 2.003a8.477 8.477 0 0 0-5.405 3.46c-2.03 2.848-2.073 6.762-.093 9.643 3.101 4.514 9.36 4.928 13.05 1.237 3.228-3.228 3.318-8.424.265-11.751a.35.35 0 0 0-.497-.004l-.72.72z" fill="#363636"/></svg>