<svg width="35" height="36" viewBox="0 0 35 36" fill="none" xmlns="http://www.w3.org/2000/svg"><path fill-rule="evenodd" clip-rule="evenodd" d="M18.614 31.474c7.292 0 13.204-5.907 13.204-13.194 0-7.286-5.912-13.193-13.204-13.193-7.293 0-13.205 5.907-13.205 13.194 0 7.286 5.912 13.193 13.205 13.193z" fill="#fff"/><path fill-rule="evenodd" clip-rule="evenodd" d="M33.539 20.017c.13-.825.199-1.67.199-2.532 0-8.961-7.27-16.225-16.239-16.225-.86 0-1.708.07-2.534.2A9.766 9.766 0 0 0 9.813 0C4.393 0 0 4.39 0 9.805c0 1.89.536 3.652 1.46 5.15a16.507 16.507 0 0 0-.198 2.53c0 8.962 7.27 16.224 16.237 16.224a16.3 16.3 0 0 0 2.535-.197 9.786 9.786 0 0 0 5.152 1.46c5.42 0 9.813-4.39 9.813-9.806a9.75 9.75 0 0 0-1.46-5.149zm-8.33 4.847c-.687.988-1.696 1.76-3.015 2.316-1.32.557-2.883.834-4.686.834-2.161 0-3.95-.378-5.363-1.142a6.948 6.948 0 0 1-2.442-2.193c-.628-.915-.946-1.81-.946-2.684 0-.516.197-.964.58-1.33.387-.367.885-.552 1.473-.552.482 0 .896.145 1.232.432.335.287.615.705.845 1.256.275.638.573 1.172.891 1.598.316.42.76.77 1.336 1.046.57.275 1.327.413 2.275.413 1.297 0 2.346-.28 3.149-.834.806-.558 1.194-1.237 1.194-2.058 0-.655-.21-1.175-.638-1.58-.432-.41-.99-.723-1.683-.941-.695-.22-1.629-.454-2.799-.7-1.571-.343-2.885-.742-3.95-1.2-1.065-.46-1.913-1.088-2.542-1.882-.63-.802-.945-1.798-.945-2.978 0-1.125.332-2.132.996-3.007.664-.879 1.624-1.551 2.877-2.02 1.248-.467 2.717-.702 4.4-.702 1.346 0 2.51.156 3.496.466.983.312 1.802.723 2.457 1.24.65.515 1.13 1.059 1.433 1.629.303.572.456 1.13.456 1.676 0 .507-.197.967-.58 1.37a1.918 1.918 0 0 1-1.446.607c-.516 0-.92-.119-1.201-.37-.274-.244-.561-.632-.872-1.173-.392-.754-.863-1.341-1.41-1.762-.532-.412-1.41-.627-2.633-.624-1.13 0-2.035.23-2.718.682-.688.459-1.016.991-1.018 1.615.002.39.114.72.34 1.002.23.284.55.531.96.739.412.21.83.374 1.25.491.425.12 1.13.295 2.111.525 1.23.265 2.346.561 3.348.883 1 .324 1.854.715 2.559 1.181a4.985 4.985 0 0 1 1.663 1.771c.4.716.598 1.59.598 2.62.002 1.24-.343 2.354-1.032 3.34z" fill="#1CA7E0"/></svg>