<svg width="35" height="36" viewBox="0 0 35 36" fill="none" xmlns="http://www.w3.org/2000/svg"><path fill-rule="evenodd" clip-rule="evenodd" d="M26.06.813A45.543 45.543 0 0 0 8.98.805C5.444 1.57 1.638 5.215.792 8.61a33.062 33.062 0 0 0-.01 14.336c.82 3.293 4.343 6.769 7.708 7.725v3.79c0 1.373 1.68 2.047 2.637 1.057l3.86-3.993c.838.047 1.675.073 2.513.073 2.846 0 5.694-.268 8.52-.804 3.536-.767 7.342-4.41 8.187-7.806a33.045 33.045 0 0 0 .01-14.337c-.855-3.437-4.661-7.081-8.157-7.84z" fill="#7D3DAF"/><path fill-rule="evenodd" clip-rule="evenodd" d="M23.03 25.465c-.356-.107-.695-.179-1.009-.308-3.258-1.338-6.256-3.064-8.631-5.71-1.351-1.504-2.408-3.202-3.302-5-.423-.852-.78-1.738-1.145-2.618-.332-.803.157-1.632.672-2.236.483-.568 1.105-1.002 1.778-1.322.525-.25 1.044-.106 1.427.335.83.953 1.592 1.954 2.209 3.059.38.68.275 1.51-.412 1.972-.168.113-.32.245-.476.371a1.545 1.545 0 0 0-.358.375c-.171.275-.18.6-.07.9.849 2.306 2.278 4.1 4.624 5.066.375.154.752.334 1.184.284.724-.083.959-.87 1.466-1.28.496-.402 1.13-.407 1.664-.072.535.334 1.053.694 1.568 1.057.505.356 1.008.705 1.475 1.111.448.391.602.904.35 1.434-.462.971-1.135 1.78-2.105 2.295-.274.145-.6.192-.91.287.31-.095-.355-.107 0 0zM17.731 7.132c4.11.114 7.486 2.818 8.21 6.845.123.687.167 1.388.222 2.085.023.293-.144.571-.463.575-.33.004-.478-.27-.5-.562-.042-.58-.071-1.162-.152-1.737-.425-3.035-2.867-5.546-5.914-6.085-.46-.08-.928-.102-1.393-.15-.294-.03-.678-.049-.743-.41-.055-.304.203-.545.495-.56.079-.005.159-.002.238-.001-.08 0 4.11.114 0 0z" fill="#fff"/><path fill-rule="evenodd" clip-rule="evenodd" d="M24.126 15.31c-.007.054-.01.18-.042.298-.113.43-.76.483-.91.05a1.297 1.297 0 0 1-.051-.413c-.002-.907-.198-1.812-.652-2.6a4.824 4.824 0 0 0-2.02-1.904 5.789 5.789 0 0 0-1.61-.496c-.242-.04-.487-.065-.731-.1-.295-.04-.453-.23-.44-.522a.459.459 0 0 1 .51-.455c.978.056 1.922.268 2.79.73 1.767.94 2.776 2.424 3.07 4.405.014.09.035.18.042.27.017.222.027.444.044.738-.017-.294-.007.053 0 0z" fill="#fff"/><path fill-rule="evenodd" clip-rule="evenodd" d="M21.027 15.277c-.34.007-.522-.193-.557-.525-.024-.23-.044-.465-.095-.69-.103-.443-.324-.853-.674-1.124a1.718 1.718 0 0 0-.55-.282c-.249-.077-.508-.056-.757-.12a.492.492 0 0 1-.377-.573.495.495 0 0 1 .515-.418c1.576.121 2.702.987 2.863 2.96.011.139.024.286-.005.42-.05.227-.208.341-.363.352.155-.01-.34.007 0 0z" fill="#fff"/></svg>