<svg width="12" height="15" viewBox="0 0 12 15" fill="none" xmlns="http://www.w3.org/2000/svg"><path fill-rule="evenodd" clip-rule="evenodd" d="M10.757 7.974c-.537-.601-1.252-1-2.146-1.194V6.7a3.141 3.141 0 0 0 1.461-1.26c.353-.57.53-1.222.53-1.954 0-.632-.129-1.19-.384-1.673A2.833 2.833 0 0 0 9.058.655 4.535 4.535 0 0 0 7.52.125C6.972.044 6.168 0 5.106 0H0v15h5.786c1.003 0 1.83-.094 2.48-.281a5.006 5.006 0 0 0 1.791-.948c.46-.37.826-.836 1.098-1.4.272-.564.407-1.219.407-1.964 0-1.021-.268-1.832-.805-2.433zm-3.883 3.984a2.967 2.967 0 0 1-1.107.272c-.363.014-.96.02-1.856.02h-.184V8.492h.635c.613 0 1.083.006 1.468.016s.687.058.907.145c.362.135.635.333.816.595.18.262.272.625.272 1.088 0 .362-.076.686-.228.973a1.462 1.462 0 0 1-.724.649zm-1.5-6.054c.248-.014.506-.084.772-.212.29-.141.491-.335.602-.585.109-.248.164-.537.164-.865 0-.242-.06-.49-.18-.746a1.096 1.096 0 0 0-.558-.554 2.235 2.235 0 0 0-.849-.177c-.327-.01-.745-.014-1.359-.014h-.24v3.172h.433c.537 0 .886-.004 1.144-.016l.07-.003z" fill="#fff"/></svg>