<svg width="36" height="36" viewBox="0 0 36 36" fill="none" xmlns="http://www.w3.org/2000/svg"><path fill-rule="evenodd" clip-rule="evenodd" d="M0 18c0 3.94 1.273 7.586 3.428 10.553L1.18 35.238l6.917-2.215A17.9 17.9 0 0 0 18 36c9.925 0 18-8.075 18-18S27.925 0 18 0 0 8.075 0 18z" fill="#59B929"/><path fill-rule="evenodd" clip-rule="evenodd" d="M12.572 9.051c-.348-.83-.615-.857-1.152-.883a12.93 12.93 0 0 0-.603-.017c-.692 0-1.41.201-1.842.64-.527.532-1.843 1.78-1.843 4.343 0 2.563 1.886 5.04 2.15 5.387.263.348 3.678 5.684 8.992 7.863 4.148 1.7 5.38 1.548 6.326 1.344 1.377-.298 3.106-1.301 3.544-2.517.44-1.217.44-2.26.308-2.476-.132-.217-.483-.347-1.01-.608-.526-.26-3.114-1.52-3.597-1.694-.482-.174-.929-.121-1.3.387-.512.702-1.005 1.422-1.413 1.85-.32.335-.835.382-1.279.195-.582-.245-2.222-.81-4.233-2.585-1.565-1.38-2.622-3.085-2.928-3.607-.307-.52-.028-.832.21-1.115.27-.323.518-.556.781-.86.264-.304.41-.466.586-.814.176-.347.057-.706-.074-.967-.132-.26-1.186-2.823-1.623-3.866z" fill="#FFFFFE"/></svg>