<svg width="27" height="27" viewBox="0 0 27 27" fill="none" xmlns="http://www.w3.org/2000/svg">
<path fill-rule="evenodd" clip-rule="evenodd" d="M9.86683 25.6442C16.8417 27.383 23.905 23.1389 25.6444 16.1657C27.3829 9.19187 23.1385 2.12821 16.1645 0.389548C9.19194 -1.34911 2.1281 2.89548 0.389978 9.86947C-1.34977 16.8424 2.89483 23.9055 9.86683 25.6442ZM15.8911 7.87807C17.6945 8.49926 19.0136 9.43015 18.7545 11.1625C18.567 12.4302 17.8637 13.0442 16.9307 13.2593C18.2121 13.9266 18.8642 14.9497 18.2428 16.7232C17.4723 18.9258 15.6407 19.1117 13.2049 18.651L12.6138 21.0197L11.1855 20.6637L11.7687 18.3268C11.3985 18.2348 11.0203 18.137 10.6301 18.0314L10.0449 20.3794L8.61829 20.0234L9.20893 17.6502C9.08652 17.6187 8.96331 17.5866 8.83928 17.5543L8.83823 17.554L8.83818 17.554L8.83813 17.554C8.62475 17.4984 8.40896 17.4422 8.19072 17.3875L6.3322 16.9241L7.04089 15.2896C7.04089 15.2896 8.09382 15.5693 8.07954 15.5486C8.48378 15.6488 8.66331 15.385 8.73418 15.2093L9.66814 11.4651C9.70976 11.4752 9.75045 11.4854 9.78941 11.4952L9.78952 11.4952L9.79009 11.4953L9.81892 11.5026C9.76179 11.4794 9.71027 11.4651 9.67049 11.4548L10.3367 8.78184C10.3541 8.47847 10.2497 8.09574 9.67122 7.95129C9.69363 7.9361 8.63402 7.6933 8.63402 7.6933L9.01404 6.16797L10.9836 6.65972L10.9821 6.66695C11.2784 6.74072 11.5834 6.8105 11.8942 6.88137L12.4798 4.53543L13.907 4.89141L13.3337 7.19106C13.7171 7.27839 14.1024 7.36661 14.4783 7.46026L15.0479 5.17579L16.476 5.53177L15.8911 7.87807ZM15.9325 11.137C15.5636 12.616 13.444 12.0502 12.4723 11.7908L12.4723 11.7908C12.384 11.7672 12.3052 11.7462 12.2381 11.7294L12.9489 8.87802C13.0305 8.89837 13.1305 8.92049 13.2437 8.94558L13.2438 8.94559C14.2499 9.1684 16.3097 9.62453 15.9325 11.137ZM11.3734 16.385C12.5391 16.6929 15.086 17.3658 15.4914 15.7385C15.9062 14.0742 13.4345 13.52 12.2294 13.2498C12.095 13.2197 11.9763 13.1931 11.8792 13.1689L11.0949 16.3127C11.1749 16.3325 11.2685 16.3573 11.3734 16.385Z" fill="#FFC567"/>
</svg>
