<svg width="27" height="27" viewBox="0 0 27 27" fill="none" xmlns="http://www.w3.org/2000/svg">
<path fill-rule="evenodd" clip-rule="evenodd" d="M25.6444 16.1657C23.905 23.1389 16.8417 27.383 9.86683 25.6442C2.89483 23.9055 -1.34977 16.8424 0.389978 9.86947C2.1281 2.89548 9.19194 -1.34911 16.1645 0.389548C23.1385 2.12821 27.3829 9.19187 25.6444 16.1657Z" fill="#BCBCBC"/>
<path fill-rule="evenodd" clip-rule="evenodd" d="M10.6081 9.77542C10.1462 10.3008 9.85593 11.0127 9.73729 11.911H15.3686C15.3093 10.9534 15.0191 10.2267 14.4979 9.73093C13.9767 9.23517 13.3305 8.98729 12.5593 8.98729C11.7203 8.98729 11.0699 9.25 10.6081 9.77542ZM15.6737 6.64831C16.5975 7.08051 17.3602 7.76271 17.9619 8.69492C18.5042 9.51695 18.8559 10.4703 19.0169 11.5551C19.1102 12.1907 19.1483 13.1059 19.1314 14.3008H9.64831C9.69915 15.6907 10.1356 16.6653 10.9576 17.2246C11.4576 17.572 12.0593 17.7458 12.7627 17.7458C13.5085 17.7458 14.1144 17.5339 14.5805 17.1102C14.8347 16.8814 15.0593 16.5636 15.2542 16.1568H18.9534C18.8602 16.9788 18.4322 17.8136 17.6695 18.661C16.483 20.0085 14.822 20.6822 12.6864 20.6822C10.9237 20.6822 9.36865 20.1144 8.02119 18.9788C6.67372 17.8432 6 15.9958 6 13.4364C6 11.0381 6.60804 9.19916 7.82415 7.91949C9.04026 6.63982 10.6186 6 12.5593 6C13.7119 6 14.75 6.2161 15.6737 6.64831Z" fill="white"/>
</svg>
