<svg width="20" height="20" viewBox="0 0 20 20" fill="none" xmlns="http://www.w3.org/2000/svg">
<rect width="2" height="2" transform="matrix(-1 0 0 1 2 11)" fill="#363636"/>
<rect width="2" height="2" transform="matrix(-1 0 0 1 2 7)" fill="#363636"/>
<rect width="2" height="2" transform="matrix(-1 0 0 1 2 3)" fill="#363636"/>
<rect width="2" height="2" transform="matrix(-1 0 0 1 9 0)" fill="#363636"/>
<rect width="2" height="2" transform="matrix(-1 0 0 1 13 0)" fill="#363636"/>
<rect width="2" height="2" transform="matrix(-1 0 0 1 17 1)" fill="#363636"/>
<rect width="2" height="2" transform="matrix(-1 0 0 1 5 0)" fill="#363636"/>
<rect width="2" height="2" transform="matrix(-1 0 0 1 3 15)" fill="#363636"/>
<rect x="-1" y="1" width="14" height="14" rx="2" transform="matrix(-1 0 0 1 18 4)" stroke="#363636" stroke-width="2"/>
</svg>
