<svg width="14" height="18" viewBox="0 0 14 18" fill="none" xmlns="http://www.w3.org/2000/svg">
<path fill-rule="evenodd" clip-rule="evenodd" d="M13.25 2.25C13.5952 2.25 13.875 2.52982 13.875 2.875C13.875 3.22018 13.5952 3.5 13.25 3.5H13.2412C13.1722 3.5 13.1141 3.55473 13.1115 3.62549L12.6615 15.775C12.6287 16.662 11.8873 17.375 11 17.375H3.00001C2.11227 17.375 1.37126 16.6606 1.33846 15.775L0.888478 3.62549C0.885912 3.55618 0.829397 3.5 0.758781 3.5H0.75C0.404822 3.5 0.125 3.22018 0.125 2.875C0.125 2.52982 0.404822 2.25 0.75 2.25H3.7971C3.86576 2.25 3.93703 2.19537 3.9555 2.13071L4.1593 1.41742C4.36837 0.685659 5.11178 0.125 5.87287 0.125H8.12713C8.88831 0.125 9.63157 0.685458 9.8407 1.41742L10.0445 2.13071C10.0633 2.19659 10.1336 2.25 10.2029 2.25H13.25ZM6.5 5.75V14.25C6.5 14.5261 6.72386 14.75 7 14.75C7.27614 14.75 7.5 14.5261 7.5 14.25V5.75C7.5 5.47386 7.27614 5.25 7 5.25C6.72386 5.25 6.5 5.47386 6.5 5.75ZM4.00022 14.2647L3.75022 5.7647C3.7421 5.48868 3.95928 5.25833 4.2353 5.25022C4.51132 5.2421 4.74167 5.45928 4.74978 5.7353L4.99978 14.2353C5.0079 14.5113 4.79072 14.7417 4.5147 14.7498C4.23868 14.7579 4.00833 14.5407 4.00022 14.2647ZM9.25022 5.7353L9.00022 14.2353C8.9921 14.5113 9.20928 14.7417 9.4853 14.7498C9.76132 14.7579 9.99167 14.5407 9.99978 14.2647L10.2498 5.7647C10.2579 5.48868 10.0407 5.25833 9.7647 5.25022C9.48868 5.2421 9.25834 5.45928 9.25022 5.7353ZM8.65196 2.25H5.34804C5.27812 2.25 5.2364 2.19765 5.25527 2.13158L5.3612 1.76082C5.41694 1.56573 5.66984 1.375 5.87287 1.375H8.12713C8.33029 1.375 8.58301 1.56556 8.6388 1.76082L8.74473 2.13158C8.76341 2.19698 8.72269 2.25 8.65196 2.25Z" fill="#363636"/>
</svg>
