<svg width="4" height="19" viewBox="0 0 4 19" fill="none" xmlns="http://www.w3.org/2000/svg">
<path fill-rule="evenodd" clip-rule="evenodd" d="M4 16.4C4 15.2954 3.10457 14.4 2 14.4C0.89543 14.4 0 15.2954 0 16.4C0 17.5046 0.89543 18.4 2 18.4C3.10457 18.4 4 17.5046 4 16.4Z" fill="#363636"/>
<path fill-rule="evenodd" clip-rule="evenodd" d="M4 9.19998C4 8.09541 3.10457 7.19998 2 7.19998C0.89543 7.19998 0 8.09541 0 9.19998C0 10.3046 0.89543 11.2 2 11.2C3.10457 11.2 4 10.3046 4 9.19998Z" fill="#363636"/>
<path fill-rule="evenodd" clip-rule="evenodd" d="M4 2C4 0.89543 3.10457 0 2 0C0.89543 0 0 0.89543 0 2C0 3.10457 0.89543 4 2 4C3.10457 4 4 3.10457 4 2Z" fill="#363636"/>
</svg>
