<svg width="36" height="36" viewBox="0 0 36 36" fill="none" xmlns="http://www.w3.org/2000/svg">
<path fill-rule="evenodd" clip-rule="evenodd" d="M18.4501 31.5C26.6515 31.5 33.3001 24.8514 33.3001 16.65C33.3001 8.44856 26.6515 1.79999 18.4501 1.79999C10.2487 1.79999 3.6001 8.44856 3.6001 16.65C3.6001 24.8514 10.2487 31.5 18.4501 31.5Z" fill="white"/>
<path fill-rule="evenodd" clip-rule="evenodd" d="M19.7889 22.4444L15.205 17.5556L6.26093 22.4444L16.0995 12L20.795 16.889L29.6274 12L19.7889 22.4444ZM18 0C8.05893 0 0 7.46197 0 16.6667C0 21.9116 2.61758 26.5902 6.70806 29.6452V36L12.8369 32.6363C14.4726 33.089 16.2053 33.3334 18 33.3334C27.9413 33.3334 36 25.8714 36 16.6667C36 7.46197 27.9413 0 18 0Z" fill="#4670A9"/>
</svg>
