<svg width="30" height="30" viewBox="0 0 30 30" fill="none" xmlns="http://www.w3.org/2000/svg">
<path fill-rule="evenodd" clip-rule="evenodd" d="M15 0C6.71538 0 0 6.71538 0 15C0 23.2846 6.71538 30 15 30C23.2835 30 30 23.2846 30 15C30 6.71538 23.2835 0 15 0ZM15.2618 4.38034C17.4468 4.38034 19.2201 6.15368 19.2201 8.34263C19.2201 10.5237 17.4468 12.297 15.2618 12.297C13.0728 12.297 11.3034 10.5237 11.3034 8.34263C11.3034 6.15368 13.0728 4.38034 15.2618 4.38034ZM14.3215 28.2346C14.5442 28.2577 14.7704 28.2692 15 28.2692C22.3281 28.2692 28.2692 22.3281 28.2692 15C28.2692 7.90038 22.6892 2.12077 15.6785 1.76423C15.4558 1.74115 15.2296 1.73077 15 1.73077C15.2296 1.73077 15.4558 1.74231 15.6785 1.76423C19.0235 2.10462 21.6335 4.93038 21.6335 8.36539C21.6335 12.0288 18.6646 15 15 15C11.3354 15 8.36423 17.97 8.36423 21.6335C8.36423 25.0696 10.9754 27.8954 14.3215 28.2346Z" fill="#363636"/>
<path d="M14.6667 26C16.8758 26 18.6667 24.2091 18.6667 22C18.6667 19.7909 16.8758 18 14.6667 18C12.4575 18 10.6667 19.7909 10.6667 22C10.6667 24.2091 12.4575 26 14.6667 26Z" fill="#363636"/>
</svg>
