<svg width="30" height="30" viewBox="0 0 30 30" fill="none" xmlns="http://www.w3.org/2000/svg">
<path d="M29 15C29 22.732 22.732 29 15 29C7.26801 29 1 22.732 1 15C1 7.26801 7.26801 1 15 1C22.732 1 29 7.26801 29 15Z" stroke="#363636" stroke-width="2"/>
<mask id="path-2-inside-1" fill="white">
<path fill-rule="evenodd" clip-rule="evenodd" d="M25.4545 23.6364C25.4545 21.5163 20.7738 18.1818 15 18.1818C9.22607 18.1818 4.54541 21.3608 4.54541 23.6364"/>
</mask>
<path d="M27.4545 23.6364C27.4545 22.4105 26.8115 21.3501 26.1446 20.5802C25.4383 19.7648 24.4855 19.0168 23.3968 18.3845C21.2158 17.1181 18.2578 16.1818 15 16.1818V20.1818C17.516 20.1818 19.7852 20.9128 21.3881 21.8436C22.1913 22.31 22.7695 22.7932 23.1212 23.1992C23.5124 23.6508 23.4545 23.8022 23.4545 23.6364H27.4545ZM15 16.1818C11.7615 16.1818 8.80682 17.0691 6.61651 18.3185C5.52327 18.9421 4.56124 19.6898 3.8476 20.5235C3.16038 21.3264 2.54541 22.3998 2.54541 23.6364H6.54541C6.54541 23.7352 6.51553 23.5579 6.88636 23.1247C7.23078 22.7223 7.79978 22.2486 8.59844 21.793C10.1919 20.884 12.4645 20.1818 15 20.1818V16.1818Z" fill="#363636" mask="url(#path-2-inside-1)"/>
<path d="M19.9091 9.61039C19.9091 10.7567 19.3921 12.2417 18.5066 13.4425C17.6126 14.655 16.5109 15.3636 15.4545 15.3636C14.3982 15.3636 13.2965 14.655 12.4025 13.4425C11.517 12.2417 11 10.7567 11 9.61039C11 7.43389 12.9233 5.54545 15.4545 5.54545C17.9858 5.54545 19.9091 7.43389 19.9091 9.61039Z" stroke="#363636" stroke-width="2"/>
</svg>
