<svg width="32" height="27" viewBox="0 0 32 27" fill="none" xmlns="http://www.w3.org/2000/svg">
<mask id="path-1-inside-1" fill="white">
<path fill-rule="evenodd" clip-rule="evenodd" d="M7 0C5.34315 0 4 1.34315 4 3V9H23C24.1046 9 25 9.89543 25 11V21H29C30.6569 21 32 19.6569 32 18V3C32 1.34315 30.6569 0 29 0H7Z"/>
</mask>
<path d="M4 9H2V11H4V9ZM25 21H23V23H25V21ZM6 3C6 2.44772 6.44772 2 7 2V-2C4.23858 -2 2 0.238576 2 3H6ZM6 9V3H2V9H6ZM4 11H23V7H4V11ZM23 11H27C27 8.79086 25.2091 7 23 7V11ZM23 11V21H27V11H23ZM29 19H25V23H29V19ZM30 18C30 18.5523 29.5523 19 29 19V23C31.7614 23 34 20.7614 34 18H30ZM30 3V18H34V3H30ZM29 2C29.5523 2 30 2.44772 30 3H34C34 0.238577 31.7614 -2 29 -2V2ZM7 2H29V-2H7V2Z" fill="#363636" mask="url(#path-1-inside-1)"/>
<rect x="4" y="20" width="5" height="2" fill="#363636"/>
<rect x="11" y="20" width="5" height="2" fill="#363636"/>
<rect x="18" y="20" width="5" height="2" fill="#363636"/>
<path fill-rule="evenodd" clip-rule="evenodd" d="M2.88947 7C1.30227 7 0 8.28293 0 9.86551V24.1345C0 25.7185 1.29366 27 2.88947 27H24.1105C25.6977 27 27 25.7171 27 24.1345V9.86551C27 8.28151 25.7063 7 24.1105 7H2.88947ZM2 24.0506V9.94945C2 9.42713 2.43403 9 2.95497 9H24.045C24.5713 9 25 9.42259 25 9.94945V24.0506C25 24.5729 24.566 25 24.045 25H2.95497C2.42868 25 2 24.5774 2 24.0506Z" fill="#363636"/>
<path fill-rule="evenodd" clip-rule="evenodd" d="M6.5 17C7.88071 17 9 15.8807 9 14.5C9 13.1193 7.88071 12 6.5 12C5.11929 12 4 13.1193 4 14.5C4 15.8807 5.11929 17 6.5 17Z" fill="#363636"/>
</svg>
