<svg width="34" height="30" viewBox="0 0 34 30" fill="none" xmlns="http://www.w3.org/2000/svg">
<mask id="path-1-inside-1" fill="white">
<path fill-rule="evenodd" clip-rule="evenodd" d="M33.9998 15C33.9998 23.2843 27.2841 30 18.9998 30C15.6223 30 12.5056 28.8837 9.99835 27H2.99981C1.19736 27.0414 0.124843 25.0034 1.17964 23.5412L4.51615 18.9161C4.17943 17.6677 3.99981 16.3548 3.99981 15C3.99981 6.71573 10.7155 0 18.9998 0C27.2841 0 33.9998 6.71573 33.9998 15Z"/>
</mask>
<path d="M9.99835 27L11.1997 25.401L10.666 25H9.99835V27ZM2.99981 27V25H2.97682L2.95384 25.0005L2.99981 27ZM1.17964 23.5412L-0.442362 22.3711L1.17964 23.5412ZM4.51615 18.9161L6.13815 20.0862L6.69501 19.3142L6.44714 18.3953L4.51615 18.9161ZM18.9998 32C28.3887 32 35.9998 24.3888 35.9998 15H31.9998C31.9998 22.1797 26.1795 28 18.9998 28V32ZM8.797 28.599C11.6387 30.734 15.1743 32 18.9998 32V28C16.0704 28 13.3724 27.0334 11.1997 25.401L8.797 28.599ZM2.99981 29H9.99835V25H2.99981V29ZM-0.442362 22.3711C-2.46375 25.1732 -0.40841 29.0789 3.04579 28.9995L2.95384 25.0005C2.89538 25.0019 2.87004 24.9887 2.85622 24.9802C2.83544 24.9674 2.80884 24.9424 2.78815 24.9031C2.76745 24.8637 2.76192 24.8277 2.76313 24.8033C2.76393 24.7871 2.76743 24.7587 2.80164 24.7113L-0.442362 22.3711ZM2.89415 17.746L-0.442362 22.3711L2.80164 24.7113L6.13815 20.0862L2.89415 17.746ZM1.99981 15C1.99981 16.5323 2.20305 18.0202 2.58515 19.4369L6.44714 18.3953C6.15581 17.3151 5.99981 16.1773 5.99981 15H1.99981ZM18.9998 -2C9.61097 -2 1.99981 5.61116 1.99981 15H5.99981C5.99981 7.8203 11.8201 2 18.9998 2V-2ZM35.9998 15C35.9998 5.61116 28.3887 -2 18.9998 -2V2C26.1795 2 31.9998 7.8203 31.9998 15H35.9998Z" fill="#363636" mask="url(#path-1-inside-1)"/>
<path d="M10.5479 21.1728C10.57 20.3096 10.7554 19.521 11.104 18.8071C11.4416 18.0047 12.2384 17.1553 13.4946 16.2588C14.5848 15.4785 15.2904 14.9196 15.6113 14.582C16.1038 14.0563 16.3501 13.4808 16.3501 12.8555C16.3501 12.3463 16.209 11.923 15.9268 11.5854C15.6445 11.2479 15.2406 11.0791 14.7148 11.0791C13.9954 11.0791 13.5057 11.3475 13.2456 11.8843C13.0962 12.1942 13.0076 12.6867 12.98 13.3618H10.6807C10.7194 12.338 10.9048 11.5107 11.2368 10.8799C11.8677 9.67902 12.9883 9.0786 14.5986 9.0786C15.8714 9.0786 16.8841 9.43276 17.6367 10.1411C18.3893 10.8439 18.7656 11.7764 18.7656 12.9385C18.7656 13.8294 18.5 14.6208 17.9688 15.3125C17.6201 15.7718 17.0474 16.2837 16.2505 16.8481L15.3042 17.5205C14.7121 17.9411 14.3053 18.2454 14.084 18.4336C13.8682 18.6217 13.6855 18.8403 13.5361 19.0893H18.7905V21.1728H10.5479ZM28.1596 18.583H26.7983V21.1728H24.4824V18.583H19.7177V16.5161L24.1421 9.21141H26.7983V16.7319H28.1596V18.583ZM24.4824 16.7319V11.5356L21.4692 16.7319H24.4824Z" fill="#363636"/>
</svg>
