<svg width="31" height="34" viewBox="0 0 31 34" fill="none" xmlns="http://www.w3.org/2000/svg">
<mask id="path-1-inside-1" fill="white">
<path fill-rule="evenodd" clip-rule="evenodd" d="M16.6819 11.4142C17.463 10.6332 18.7293 10.6332 19.5104 11.4142L29.9974 21.9013C30.0401 21.9439 30.0552 22.0037 30.0427 22.0585C30.0552 22.1133 30.0401 22.1731 29.9974 22.2158L19.5104 32.7029C18.7293 33.4839 17.463 33.4839 16.6819 32.7029L12.2356 28.2565C12.1054 28.1263 12.1054 27.9153 12.2356 27.7851L13.0207 27H4.99989C3.89532 27 2.99989 26.1046 2.99989 25V19C2.99989 17.8954 3.89532 17 4.99989 17H12.9036L12.2356 16.332C12.1054 16.2018 12.1054 15.9907 12.2356 15.8606L16.6819 11.4142Z"/>
</mask>
<path d="M19.5104 11.4142L18.0962 12.8284L18.0962 12.8284L19.5104 11.4142ZM16.6819 11.4142L18.0962 12.8284L18.0962 12.8284L16.6819 11.4142ZM29.9974 21.9013L28.5832 23.3155L28.5832 23.3155L29.9974 21.9013ZM30.0427 22.0585L28.0927 22.503L27.9914 22.0586L28.0927 21.6142L30.0427 22.0585ZM29.9974 22.2158L28.5832 20.8016L28.5832 20.8016L29.9974 22.2158ZM19.5104 32.7029L20.9246 34.1171L20.9246 34.1171L19.5104 32.7029ZM16.6819 32.7029L15.2677 34.1171L15.2677 34.1171L16.6819 32.7029ZM12.2356 27.7851L13.6498 29.1993L13.6498 29.1993L12.2356 27.7851ZM13.0207 27V25H17.8491L14.4349 28.4142L13.0207 27ZM12.9036 17L14.3178 15.5858L17.732 19H12.9036V17ZM12.2356 15.8606L10.8214 14.4464L10.8214 14.4463L12.2356 15.8606ZM18.0962 12.8284H18.0962L15.2677 10C16.8298 8.4379 19.3625 8.4379 20.9246 10L18.0962 12.8284ZM28.5832 23.3155L18.0962 12.8284L20.9246 10L31.4116 20.4871L28.5832 23.3155ZM28.0927 21.6142C27.9588 22.2016 28.1195 22.8518 28.5832 23.3155L31.4116 20.4871C31.9607 21.0361 32.1516 21.8059 31.9927 22.5029L28.0927 21.6142ZM28.5832 20.8016C28.1195 21.2653 27.9588 21.9155 28.0927 22.503L31.9927 21.6141C32.1516 22.3111 31.9607 23.081 31.4116 23.63L28.5832 20.8016ZM18.0962 31.2887L28.5832 20.8016L31.4116 23.63L20.9246 34.1171L18.0962 31.2887ZM18.0962 31.2887H18.0962L20.9246 34.1171C19.3625 35.6792 16.8298 35.6792 15.2677 34.1171L18.0962 31.2887ZM13.6498 26.8423L18.0962 31.2887L15.2677 34.1171L10.8214 29.6707L13.6498 26.8423ZM13.6498 29.1993C14.3007 28.5485 14.3007 27.4932 13.6498 26.8423L10.8214 29.6707C9.91015 28.7595 9.91015 27.2821 10.8214 26.3709L13.6498 29.1993ZM14.4349 28.4142L13.6498 29.1993L10.8214 26.3709L11.6065 25.5858L14.4349 28.4142ZM4.99989 25H13.0207V29H4.99989V25ZM4.99989 25V25V29C2.79074 29 0.999887 27.2091 0.999887 25H4.99989ZM4.99989 19V25H0.999887V19H4.99989ZM4.99989 19H0.999887C0.999887 16.7909 2.79075 15 4.99989 15V19ZM12.9036 19H4.99989V15H12.9036V19ZM13.6498 14.9178L14.3178 15.5858L11.4894 18.4142L10.8214 17.7462L13.6498 14.9178ZM13.6498 17.2748C14.3007 16.6239 14.3007 15.5686 13.6498 14.9178L10.8214 17.7462C9.91017 16.835 9.91014 15.3576 10.8214 14.4464L13.6498 17.2748ZM18.0962 12.8284L13.6498 17.2748L10.8214 14.4463L15.2677 10L18.0962 12.8284Z" fill="#363636" mask="url(#path-1-inside-1)"/>
<mask id="path-3-inside-2" fill="white">
<path fill-rule="evenodd" clip-rule="evenodd" d="M13.6081 1.41421C12.8271 0.633165 11.5607 0.633165 10.7797 1.41421L0.292608 11.9013C0.24994 11.9439 0.234849 12.0037 0.247334 12.0585C0.234847 12.1133 0.249938 12.1731 0.292607 12.2158L7.07681 19H15.1797C14.6869 17.9477 14.8325 16.6574 15.6543 15.7328L17.4768 13.6825C17.8697 13.2406 18.558 13.2341 18.9591 13.6686L22.0342 17H25C26.1046 17 27 16.1046 27 15V9C27 7.89543 26.1046 7 25 7H17.3864L18.0544 6.33197C18.1846 6.20179 18.1846 5.99074 18.0545 5.86056L13.6081 1.41421Z"/>
</mask>
<path d="M10.7797 1.41421L12.1939 2.82843L12.1939 2.82843L10.7797 1.41421ZM13.6081 1.41421L12.1939 2.82843L12.1939 2.82843L13.6081 1.41421ZM0.292608 11.9013L1.70681 13.3155L1.70682 13.3155L0.292608 11.9013ZM0.247334 12.0585L2.19733 12.503L2.29862 12.0586L2.19734 11.6142L0.247334 12.0585ZM0.292607 12.2158L1.70682 10.8016L1.70682 10.8016L0.292607 12.2158ZM7.07681 19L5.66259 20.4142L6.24838 21H7.07681V19ZM15.1797 19V21H18.3248L16.9909 18.1518L15.1797 19ZM15.6543 15.7328L17.1492 17.0615L17.1492 17.0615L15.6543 15.7328ZM17.4768 13.6825L15.982 12.3538L15.982 12.3538L17.4768 13.6825ZM18.9591 13.6686L20.4287 12.312V12.312L18.9591 13.6686ZM22.0342 17L20.5646 18.3566L21.1586 19H22.0342V17ZM17.3864 7L15.9722 5.58579L12.558 9H17.3864V7ZM18.0545 5.86056L19.4687 4.44635L19.4687 4.44635L18.0545 5.86056ZM12.1939 2.82843H12.1939L15.0223 6.55651e-07C13.4602 -1.5621 10.9276 -1.5621 9.36546 5.96046e-07L12.1939 2.82843ZM1.70682 13.3155L12.1939 2.82843L9.36546 0L-1.12161 10.4871L1.70682 13.3155ZM2.19734 11.6142C2.33121 12.2016 2.17051 12.8518 1.70681 13.3155L-1.1216 10.4871C-1.67063 11.0361 -1.86151 11.8059 -1.70267 12.5029L2.19734 11.6142ZM1.70682 10.8016C2.17052 11.2653 2.33122 11.9155 2.19733 12.503L-1.70266 11.6141C-1.86152 12.3111 -1.67064 13.081 -1.1216 13.63L1.70682 10.8016ZM8.49102 17.5858L1.70682 10.8016L-1.12161 13.63L5.66259 20.4142L8.49102 17.5858ZM7.07681 21H15.1797V17H7.07681V21ZM14.1595 14.4041C12.7876 15.9474 12.5491 18.0987 13.3685 19.8482L16.9909 18.1518C16.8247 17.7968 16.8773 17.3673 17.1492 17.0615L14.1595 14.4041ZM15.982 12.3538L14.1595 14.4041L17.1492 17.0615L18.9717 15.0112L15.982 12.3538ZM20.4287 12.312C19.2256 11.0087 17.1604 11.028 15.982 12.3538L18.9717 15.0112C18.5789 15.4531 17.8905 15.4596 17.4895 15.0251L20.4287 12.312ZM23.5038 15.6434L20.4287 12.312L17.4895 15.0251L20.5646 18.3566L23.5038 15.6434ZM25 15H22.0342V19H25V15ZM25 15V15V19C27.2091 19 29 17.2091 29 15H25ZM25 9V15H29V9H25ZM25 9H29C29 6.79086 27.2091 5 25 5V9ZM17.3864 9H25V5H17.3864V9ZM16.6402 4.91775L15.9722 5.58579L18.8006 8.41421L19.4687 7.74618L16.6402 4.91775ZM16.6402 7.27477C15.9894 6.62389 15.9894 5.56862 16.6402 4.91775L19.4687 7.74618C20.3799 6.83497 20.3799 5.35759 19.4687 4.44635L16.6402 7.27477ZM12.1939 2.82843L16.6402 7.27478L19.4687 4.44635L15.0223 -1.78814e-07L12.1939 2.82843Z" fill="#363636" mask="url(#path-3-inside-2)"/>
</svg>
