<svg width="12" height="19" viewBox="0 0 12 19" fill="none" xmlns="http://www.w3.org/2000/svg">
<path fill-rule="evenodd" clip-rule="evenodd" d="M5.69983 9.61791C8.34885 9.61791 10.4969 7.4644 10.4969 4.80896C10.4969 2.15272 8.34885 0 5.69983 0C3.05081 0 0.90359 2.15272 0.90359 4.80896C0.90359 7.4644 3.05081 9.61791 5.69983 9.61791ZM5.69983 2.44272C7.00353 2.44272 8.05994 3.50235 8.05994 4.80896C8.05994 6.11557 7.00353 7.1744 5.69983 7.1744C4.39693 7.1744 3.34053 6.11557 3.34053 4.80896C3.34053 3.50235 4.39693 2.44272 5.69983 2.44272ZM9.21158 9.99237C10.2088 9.20522 10.9587 9.65934 11.2292 10.2043C11.7013 11.1556 11.1675 11.6145 9.96387 12.3897C8.94428 13.0454 7.54694 13.2939 6.63379 13.3888L7.39808 14.1544L10.2248 16.9883C10.6537 17.4185 10.6537 18.1164 10.2248 18.5475L10.0951 18.6773C9.66536 19.1076 8.96909 19.1076 8.53932 18.6773C8.21064 18.3479 7.81583 17.952 7.38147 17.5165C6.86609 16.9997 6.29502 16.4271 5.71264 15.8434L2.88595 18.6773C2.45699 19.1076 1.76072 19.1076 1.33095 18.6773L1.2013 18.5475C0.771539 18.1164 0.771539 17.4185 1.2013 16.9883C1.91918 16.2681 2.95478 15.23 4.02799 14.1544L4.78908 13.3911C3.87673 13.2987 2.46419 13.0509 1.43579 12.3897C0.232132 11.6145 -0.300872 11.1556 0.170509 10.2043C0.441813 9.65934 1.1917 9.20522 2.18888 9.99237C3.5358 11.0568 5.69983 11.0568 5.69983 11.0568C5.69983 11.0568 7.86386 11.0568 9.21158 9.99237Z" fill="white"/>
</svg>
