<svg width="25" height="28" viewBox="0 0 25 28" fill="none" xmlns="http://www.w3.org/2000/svg">
<path fill-rule="evenodd" clip-rule="evenodd" d="M24.7189 26.422C24.0087 24.9164 22.7491 23.8114 21.3843 22.9641C20.9111 22.6702 20.3767 22.4628 19.911 22.3039C18.84 21.9426 17.8033 21.8589 16.5946 21.6435C15.6126 21.4685 14.8367 21.0479 14.004 20.459C13.5704 20.1501 13.2157 19.7265 12.9193 19.2776C12.8641 19.1871 12.5872 18.8357 12.6149 18.7149C12.6149 18.7149 12.4218 19.5202 12.8042 20.6503C9.28916 20.4862 6.20776 18.4554 4.79644 15.9936C2.19795 11.4637 3.11371 5.97377 6.5777 3.54929C10.0407 1.12399 15.3216 2.83491 18.1484 7.2127C19.9227 9.96016 20.3767 13.1565 19.6167 15.7562C19.6109 15.7764 19.6038 15.7954 19.5981 15.8155C18.0961 14.6774 16.7242 15.258 16.7242 15.258C18.2295 15.096 19.4196 16.344 19.4196 16.344C19.5943 16.506 19.7623 16.6851 19.915 16.8844C19.9488 16.9327 19.9844 16.9819 20.0184 17.0343C20.4125 17.5918 20.6586 18.2118 20.7631 18.8408C23.7517 14.8907 24.2455 9.41973 21.6007 5.17076C18.2322 -0.24479 11.0492 -1.62759 5.56244 2.07808C0.0728679 5.78662 -1.64469 13.1786 1.72554 18.5933C4.49396 23.0486 10.9883 24.4073 14.7111 23.1795C16.1186 22.7184 20.938 22.2796 24.2927 26.408C24.2927 26.408 24.5824 26.7532 24.74 27.1467C24.74 27.1467 24.7865 27.2846 24.911 27.218C24.9438 27.1999 25.0364 27.0881 24.7189 26.422ZM18.3078 19.1708C18.3036 19.1681 18.3009 19.1681 18.2967 19.1651C18.2884 19.1651 18.2823 19.1622 18.2769 19.1604C18.2678 19.1575 18.2604 19.1537 18.2522 19.1518C18.2474 19.1518 18.24 19.1518 18.2379 19.1498C18.2246 19.1459 18.2124 19.1432 18.1979 19.1383C18.0322 19.1116 17.8677 19.1345 17.7312 19.2169C17.4214 19.4132 17.374 19.8567 17.6278 20.2099C17.7464 20.3699 17.9047 20.4809 18.0753 20.5423C18.0787 20.5423 18.0816 20.5423 18.089 20.546C18.0939 20.547 18.1012 20.5509 18.1063 20.5509C18.1145 20.5547 18.1227 20.5547 18.1301 20.5566C18.137 20.5566 18.1404 20.5596 18.1452 20.5613C18.1589 20.5643 18.1701 20.569 18.1836 20.57C18.348 20.6006 18.5134 20.5786 18.6513 20.4925C18.963 20.2962 19.0104 19.8547 18.7562 19.5023C18.6389 19.3405 18.4797 19.2275 18.3078 19.1708ZM19.9602 18.316C19.5249 18.2111 19.4858 18.5434 19.5952 18.7597C19.8373 19.2662 20.1663 19.6536 20.4071 19.7309C20.6369 19.8213 20.9098 19.6127 20.7358 19.1062C20.661 18.8865 20.4036 18.4274 19.9602 18.316Z" fill="#FFB134"/>
</svg>
