<svg width="25" height="25" viewBox="0 0 25 25" fill="none" xmlns="http://www.w3.org/2000/svg">
<path fill-rule="evenodd" clip-rule="evenodd" d="M17.0807 6.9942C16.9527 7.12219 16.9525 7.32586 17.0756 7.46311C19.7824 10.4543 19.3474 15.3 15.7694 17.7043C13.5302 19.21 10.5155 19.2101 8.28111 17.7105C4.61003 15.2434 4.25893 10.1947 7.22873 7.22488C8.15783 6.29578 9.2927 5.70043 10.4865 5.42L10.4892 7.95399C10.4866 8.25476 10.8511 8.40602 11.0644 8.19271L14.1789 5.04991C14.3116 4.91718 14.3118 4.70404 14.1792 4.57153L11.0534 1.44568C10.8404 1.23271 10.4756 1.38458 10.4777 1.68534L10.4808 3.68885C8.40595 4.07419 6.44887 5.21728 5.07609 7.14849C3.04657 9.99675 3.0031 13.9114 4.98294 16.7919C8.08397 21.3056 14.3428 21.7196 18.0331 18.0293C21.2613 14.8011 21.3508 9.60521 18.2985 6.27801C18.1684 6.13839 17.9387 6.13621 17.8012 6.27368L17.0807 6.9942Z" fill="#363636"/>
</svg>
