<svg width="35" height="36" viewBox="0 0 35 36" fill="none" xmlns="http://www.w3.org/2000/svg">
<path fill-rule="evenodd" clip-rule="evenodd" d="M18.6137 31.4743C25.9064 31.4743 31.8183 25.5672 31.8183 18.2805C31.8183 10.9938 25.9064 5.08676 18.6137 5.08676C11.3211 5.08676 5.40918 10.9938 5.40918 18.2805C5.40918 25.5672 11.3211 31.4743 18.6137 31.4743Z" fill="white"/>
<path fill-rule="evenodd" clip-rule="evenodd" d="M33.5386 20.0175C33.6692 19.1918 33.7379 18.3471 33.7379 17.485C33.7379 8.52377 26.4679 1.25984 17.4992 1.25984C16.6386 1.25984 15.7907 1.33066 14.9651 1.4597C13.4696 0.535078 11.7044 0 9.81276 0C4.39341 0 0 4.38925 0 9.80475C0 11.6945 0.535841 13.4567 1.46081 14.9541C1.33281 15.7811 1.26234 16.6231 1.26234 17.4853C1.26234 26.4471 8.53219 33.7089 17.4988 33.7089C18.3602 33.7089 19.2082 33.6425 20.0338 33.5123C21.5309 34.4352 23.2945 34.9717 25.1858 34.9717C30.6066 34.9717 34.9995 30.5813 34.9995 25.166C35 23.2755 34.4644 21.5137 33.5386 20.0175ZM25.209 24.8643C24.5221 25.8525 23.5129 26.6246 22.1944 27.1799C20.8731 27.7366 19.3115 28.0136 17.5081 28.0136C15.3467 28.0136 13.5571 27.6357 12.1446 26.8725C11.1433 26.3261 10.3289 25.593 9.70283 24.6789C9.07544 23.764 8.75735 22.8681 8.75735 21.9945C8.75735 21.4792 8.95403 21.0311 9.33689 20.6657C9.72374 20.2976 10.222 20.1131 10.8101 20.1131C11.2918 20.1131 11.7056 20.2581 12.0425 20.5453C12.3768 20.8325 12.6573 21.25 12.8867 21.801C13.1617 22.4392 13.4603 22.9727 13.7781 23.3985C14.0939 23.8189 14.5383 24.1699 15.114 24.4446C15.6832 24.7201 16.4409 24.8578 17.389 24.8578C18.6865 24.8578 19.735 24.5774 20.5375 24.0242C21.3441 23.4659 21.7315 22.7867 21.7315 21.966C21.7315 21.3114 21.5226 20.7915 21.0943 20.3862C20.662 19.9756 20.1038 19.6629 19.4111 19.4448C18.7157 19.2243 17.782 18.9906 16.612 18.7443C15.0408 18.4017 13.7268 18.0029 12.6627 17.5449C11.5972 17.0852 10.7486 16.4568 10.1197 15.663C9.48947 14.8614 9.1752 13.865 9.1752 12.685C9.1752 11.5597 9.50696 10.5533 10.1711 9.67751C10.835 8.79923 11.7954 8.12699 13.0477 7.65875C14.2957 7.19066 15.7649 6.9565 17.448 6.9565C18.794 6.9565 19.9583 7.11212 20.9438 7.42174C21.9266 7.73363 22.7458 8.1452 23.4009 8.66166C24.0518 9.17698 24.5308 9.72052 24.8341 10.2909C25.1372 10.863 25.2899 11.4217 25.2899 11.9669C25.2899 12.4739 25.0932 12.9337 24.7099 13.3366C24.3268 13.7401 23.8366 13.9459 23.2641 13.944C22.748 13.944 22.3432 13.825 22.0625 13.5732C21.7891 13.3296 21.5019 12.9418 21.1913 12.4013C20.7987 11.6471 20.3284 11.0595 19.7816 10.6392C19.2492 10.2267 18.3708 10.012 17.1484 10.0146C16.0175 10.0146 15.1127 10.2455 14.4297 10.6971C13.7425 11.1559 13.414 11.6882 13.4125 12.3119C13.4136 12.7028 13.5261 13.0323 13.7523 13.3141C13.9821 13.5985 14.3019 13.845 14.7128 14.0527C15.1239 14.2637 15.5421 14.4269 15.9623 14.5443C16.3874 14.6647 17.0929 14.8388 18.0734 15.0693C19.3031 15.3341 20.4185 15.63 21.4208 15.9524C22.4211 16.2765 23.2748 16.6673 23.98 17.133C24.6909 17.5972 25.2465 18.1892 25.6431 18.9041C26.0426 19.6201 26.2415 20.4948 26.2415 21.5239C26.2431 22.7632 25.8976 23.8778 25.209 24.8643Z" fill="#1CA7E0"/>
</svg>
