<svg width="35" height="36" viewBox="0 0 35 36" fill="none" xmlns="http://www.w3.org/2000/svg">
<path fill-rule="evenodd" clip-rule="evenodd" d="M26.0598 0.81292C20.366 -0.268281 14.6328 -0.268281 8.97965 0.804842C5.44439 1.57103 1.63773 5.21503 0.792186 8.61095C-0.260969 13.395 -0.260969 18.2044 0.782907 22.9469C1.60165 26.2395 5.12485 29.716 8.49019 30.6722V34.4629C8.49019 35.8349 10.1708 36.5088 11.1266 35.5188L14.9872 31.5264C15.8245 31.573 16.6622 31.599 17.5 31.599C20.3463 31.599 23.1938 31.3313 26.0203 30.7947C29.5556 30.0285 33.3623 26.3845 34.2067 22.9886C35.261 18.2044 35.261 13.395 34.2171 8.65249C33.3623 5.21503 29.5556 1.57103 26.0598 0.81292Z" fill="#7D3DAF"/>
<path fill-rule="evenodd" clip-rule="evenodd" d="M23.0293 25.4646C22.6741 25.3579 22.3355 25.2862 22.0211 25.157C18.7632 23.8193 15.7647 22.0934 13.3897 19.4477C12.039 17.9433 10.9819 16.2448 10.0883 14.4473C9.66453 13.5948 9.30741 12.709 8.94341 11.829C8.6115 11.0264 9.10038 10.1974 9.61517 9.59268C10.0982 9.0252 10.7198 8.5909 11.3929 8.27083C11.9184 8.021 12.4366 8.16503 12.8204 8.6058C13.6499 9.55872 14.4119 10.5604 15.0289 11.665C15.4083 12.3444 15.3042 13.1748 14.6166 13.6372C14.4495 13.7496 14.2972 13.8815 14.1415 14.0085C14.0049 14.1197 13.8764 14.2321 13.7829 14.3827C13.6118 14.6583 13.6036 14.9833 13.7138 15.2829C14.5617 17.5894 15.991 19.3828 18.3366 20.3488C18.7119 20.5033 19.0889 20.6833 19.5213 20.6334C20.2454 20.5496 20.4799 19.7635 20.9873 19.3528C21.4833 18.9514 22.1172 18.9461 22.6514 19.2807C23.1858 19.6154 23.7039 19.9748 24.2188 20.3379C24.7243 20.6944 25.2275 21.0431 25.6937 21.4494C26.142 21.8402 26.2964 22.3528 26.044 22.8831C25.5818 23.8543 24.9094 24.6622 23.9393 25.1779C23.6654 25.3234 23.3383 25.3705 23.0293 25.4646C23.3383 25.3705 22.6741 25.3578 23.0293 25.4646Z" fill="white"/>
<path fill-rule="evenodd" clip-rule="evenodd" d="M17.7313 7.13179C21.8415 7.24593 25.2175 9.94959 25.9409 13.9773C26.0642 14.6635 26.1081 15.3652 26.1629 16.0617C26.186 16.3547 26.0186 16.6331 25.6996 16.6369C25.3701 16.6408 25.2218 16.3675 25.2005 16.0747C25.1581 15.4949 25.1288 14.9127 25.0482 14.3377C24.6227 11.3029 22.1812 8.79217 19.1335 8.2534C18.6749 8.17229 18.2055 8.15098 17.7409 8.10267C17.4473 8.0721 17.0626 8.05447 16.9976 7.69265C16.943 7.38929 17.2013 7.14775 17.4927 7.13224C17.572 7.12789 17.6517 7.13146 17.7313 7.13179C17.6517 7.13146 21.8415 7.24593 17.7313 7.13179Z" fill="white"/>
<path fill-rule="evenodd" clip-rule="evenodd" d="M24.1262 15.3108C24.1192 15.3642 24.1155 15.4898 24.0844 15.6081C23.9714 16.0377 23.3233 16.0914 23.174 15.6579C23.1298 15.5293 23.1232 15.383 23.123 15.2445C23.1214 14.3383 22.9254 13.4331 22.4707 12.6447C22.0032 11.8344 21.289 11.1532 20.4513 10.7411C19.9447 10.4919 19.3969 10.337 18.8417 10.2447C18.5991 10.2043 18.3539 10.1799 18.11 10.1458C17.8146 10.1045 17.6568 9.9153 17.6708 9.62275C17.6838 9.34859 17.8832 9.1514 18.1806 9.16827C19.1577 9.22404 20.1016 9.43622 20.9703 9.89843C22.7369 10.8384 23.746 12.3222 24.0405 14.3034C24.0538 14.3932 24.0753 14.4821 24.082 14.5722C24.0987 14.7947 24.1092 15.0174 24.1262 15.3108C24.1092 15.0174 24.1192 15.3642 24.1262 15.3108Z" fill="white"/>
<path fill-rule="evenodd" clip-rule="evenodd" d="M21.027 15.2773C20.687 15.2838 20.505 15.0837 20.47 14.7522C20.4456 14.5211 20.4264 14.2869 20.3745 14.0621C20.2723 13.6192 20.0509 13.2088 19.7006 12.9375C19.5352 12.8093 19.3477 12.716 19.1514 12.6557C18.902 12.5791 18.643 12.6002 18.3941 12.5354C18.1239 12.465 17.9744 12.2323 18.0169 11.9627C18.0555 11.7174 18.28 11.5259 18.5321 11.5453C20.1078 11.6663 21.2339 12.5324 21.3947 14.5047C21.406 14.6438 21.4194 14.7909 21.3903 14.9241C21.3406 15.152 21.1819 15.2662 21.027 15.2773C21.1819 15.2662 20.687 15.2838 21.027 15.2773Z" fill="white"/>
</svg>
