<svg width="12" height="15" viewBox="0 0 12 15" fill="none" xmlns="http://www.w3.org/2000/svg">
<path fill-rule="evenodd" clip-rule="evenodd" d="M10.7566 7.9737C10.2195 7.37266 9.50454 6.97444 8.61085 6.77996V6.69939C9.23227 6.43082 9.71939 6.0113 10.0722 5.4399C10.4251 4.86942 10.602 4.21837 10.602 3.48583C10.602 2.85423 10.4732 2.29672 10.2176 1.8133C9.96203 1.32988 9.57585 0.943693 9.05816 0.654751C8.57844 0.386183 8.06631 0.210224 7.51898 0.125949C6.97166 0.0426005 6.16781 0 5.1065 0H0V15H5.78626C6.78922 15 7.61623 14.9065 8.26635 14.7185C8.91739 14.5305 9.5138 14.2147 10.0574 13.7711C10.5177 13.4016 10.8835 12.9348 11.1548 12.3708C11.4271 11.8068 11.5623 11.1521 11.5623 10.4066C11.5623 9.386 11.2938 8.57474 10.7566 7.9737ZM6.8735 11.9578C6.49843 12.1263 6.12891 12.2162 5.76681 12.23C5.40378 12.2439 4.80645 12.2504 3.91091 12.2504H3.72662V8.49231H4.36192C4.975 8.49231 5.44453 8.49787 5.82978 8.50806C6.21504 8.51732 6.51695 8.5664 6.73736 8.65345C7.09946 8.78774 7.37174 8.98592 7.55325 9.24801C7.73384 9.51009 7.8246 9.87313 7.8246 10.3362C7.8246 10.6983 7.74866 11.0224 7.59678 11.3086C7.4449 11.5938 7.20319 11.8105 6.8735 11.9578ZM5.37322 5.90387C5.62234 5.88998 5.87979 5.8196 6.14558 5.69179C6.43638 5.55103 6.63734 5.35655 6.74755 5.10743C6.85683 4.85923 6.91239 4.57029 6.91239 4.24153C6.91239 3.99981 6.8522 3.75162 6.73273 3.49602C6.61326 3.24041 6.42712 3.05612 6.17429 2.94221C5.93443 2.83478 5.65197 2.77551 5.32506 2.76533C4.99815 2.75514 4.57955 2.75051 3.96648 2.75051H3.72662V5.92332H4.1591C4.69624 5.92332 5.04538 5.91869 5.30283 5.90665L5.37322 5.90387Z" fill="white"/>
</svg>
