<svg width="36" height="36" viewBox="0 0 36 36" fill="none" xmlns="http://www.w3.org/2000/svg">
<path fill-rule="evenodd" clip-rule="evenodd" d="M0 18C0 21.9399 1.27335 25.5861 3.42776 28.5533L1.18005 35.2382L8.09707 33.0233C10.9396 34.9026 14.344 36 18.0003 36C27.9252 36 36 27.9251 36 18C36 8.07492 27.9252 0 18.0003 0C8.07534 0 0 8.07492 0 18Z" fill="#59B929"/>
<path fill-rule="evenodd" clip-rule="evenodd" d="M12.5718 9.05119C12.2235 8.22144 11.9571 8.19356 11.4201 8.16778C11.2356 8.15936 11.0356 8.15094 10.8171 8.15094C10.1247 8.15094 9.40688 8.35246 8.97457 8.79022C8.44815 9.32321 7.13208 10.5713 7.13208 13.1342C7.13208 15.6971 9.01818 18.1737 9.28139 18.5215C9.5446 18.8687 12.9605 24.205 18.2742 26.3838C22.4224 28.0838 23.6534 27.9323 24.6004 27.7276C25.9771 27.4298 27.7063 26.4269 28.1445 25.211C28.5832 23.994 28.5832 22.9517 28.4518 22.7349C28.32 22.5176 27.9695 22.3877 27.4426 22.1267C26.9162 21.8662 24.3276 20.6061 23.8453 20.4325C23.363 20.2588 22.9164 20.312 22.5452 20.8197C22.0331 21.5216 21.5402 22.2424 21.1324 22.6697C20.8123 23.0054 20.297 23.0517 19.8535 22.8654C19.2707 22.6202 17.6308 22.0546 15.6198 20.2804C14.0554 18.9003 12.9983 17.195 12.6915 16.6731C12.3846 16.1522 12.6643 15.8412 12.9015 15.5582C13.1711 15.2346 13.42 15.002 13.6832 14.6984C13.9469 14.3938 14.0937 14.2317 14.2692 13.8839C14.4446 13.5367 14.326 13.1784 14.1947 12.9174C14.0628 12.6564 13.0089 10.094 12.5718 9.05119Z" fill="#FFFFFE"/>
</svg>
