<?xml version="1.0" encoding="utf-8"?><svg viewBox="0 0 34 34" xmlns="http://www.w3.org/2000/svg" xmlns:xlink="http://www.w3.org/1999/xlink"><style>:root>svg{display:none}:root>svg:target{display:block}</style><svg fill="none" viewBox="0 0 15 10" id="arrow" xmlns="http://www.w3.org/2000/svg"><path d="M13.932 8.01l-6-6-5.942 6" stroke="#363636" stroke-width="2" stroke-linecap="round"/></svg><svg fill="none" viewBox="0 0 20 20" id="copy-ico" xmlns="http://www.w3.org/2000/svg"><path fill="#363636" d="M2 11H0v2h2zM2 7H0v2h2zM2 3H0v2h2zM9 0H7v2h2zM13 0h-2v2h2zM17 1h-2v2h2zM5 0H3v2h2zM3 15H1v2h2z"/><rect x="-1" y="1" width="14" height="14" rx="2" transform="matrix(-1 0 0 1 18 4)" stroke="#363636" stroke-width="2"/></svg><svg fill="none" viewBox="0 0 30 30" id="logo" xmlns="http://www.w3.org/2000/svg"><path fill-rule="evenodd" clip-rule="evenodd" d="M15 0C6.715 0 0 6.715 0 15s6.715 15 15 15c8.284 0 15-6.715 15-15S23.284 0 15 0zm.262 4.38a3.959 3.959 0 1 1-.001 7.916 3.959 3.959 0 0 1 0-7.916zm-.94 23.855c.222.023.448.034.678.034 7.328 0 13.27-5.94 13.27-13.269 0-7.1-5.58-12.88-12.591-13.236A6.636 6.636 0 0 1 15 15a6.635 6.635 0 0 0-.678 13.235z" fill="#363636"/><path d="M14.667 26a4 4 0 1 0 0-8 4 4 0 0 0 0 8z" fill="#363636"/></svg><svg fill="none" viewBox="0 0 31 34" id="menu-icons" xmlns="http://www.w3.org/2000/svg"><mask id="da" fill="#fff"><path fill-rule="evenodd" clip-rule="evenodd" d="M16.682 11.414a2 2 0 0 1 2.828 0l10.487 10.487a.169.169 0 0 1 .046.157.169.169 0 0 1-.046.158L19.51 32.703a2 2 0 0 1-2.828 0l-4.446-4.447a.333.333 0 0 1 0-.47L13.02 27H5a2 2 0 0 1-2-2v-6a2 2 0 0 1 2-2h7.904l-.668-.668a.333.333 0 0 1 0-.471l4.446-4.447z"/></mask><path d="M19.51 11.414l-1.414 1.414 1.414-1.414zm-2.828 0l1.414 1.414-1.414-1.414zm13.315 10.487l-1.414 1.415 1.414-1.415zm.046.157l-1.95.445-.102-.444.102-.445 1.95.444zm-.046.158l-1.414-1.414 1.414 1.414zM19.51 32.703l1.415 1.414-1.415-1.414zm-2.828 0l-1.414 1.414 1.414-1.414zm-4.446-4.918L13.65 29.2l-1.414-1.414zM13.02 27v-2h4.828l-3.414 3.414L13.02 27zm-.117-10l1.414-1.414L17.732 19h-4.828v-2zm-.668-1.14l-1.415-1.414 1.415 1.415zm5.86-3.032L15.268 10a4 4 0 0 1 5.657 0l-2.829 2.828zm10.487 10.488L18.096 12.828 20.925 10l10.487 10.487-2.829 2.829zm-.49-1.702a1.83 1.83 0 0 0 .49 1.701l2.829-2.828c.549.55.74 1.319.58 2.016l-3.9-.889zm.49-.812a1.831 1.831 0 0 0-.49 1.701l3.9-.889a2.169 2.169 0 0 1-.581 2.016l-2.829-2.828zM18.096 31.289l10.487-10.487 2.829 2.828-10.487 10.487-2.829-2.828zm0 0l2.829 2.828a4 4 0 0 1-5.657 0l2.828-2.828zm-4.446-4.447l4.446 4.447-2.828 2.828-4.447-4.446 2.829-2.829zm0 2.357c.65-.65.65-1.706 0-2.357l-2.829 2.829a2.333 2.333 0 0 1 0-3.3l2.829 2.828zm.785-.785l-.785.785-2.829-2.828.786-.785 2.828 2.828zM5 25h8.02v4H5v-4zm0 0v4a4 4 0 0 1-4-4h4zm0-6v6H1v-6h4zm0 0H1a4 4 0 0 1 4-4v4zm7.904 0H5v-4h7.904v4zm.746-4.082l.668.668-2.829 2.828-.668-.668 2.829-2.828zm0 2.357c.65-.651.65-1.706 0-2.357l-2.829 2.828a2.333 2.333 0 0 1 0-3.3l2.829 2.829zm4.446-4.447l-4.446 4.447-2.829-2.829L15.268 10l2.828 2.828z" fill="#363636" mask="url(#da)"/><mask id="db" fill="#fff"><path fill-rule="evenodd" clip-rule="evenodd" d="M13.608 1.414a2 2 0 0 0-2.828 0L.293 11.901a.169.169 0 0 0-.046.158.169.169 0 0 0 .046.157L7.077 19h8.103a3 3 0 0 1 .474-3.267l1.823-2.05a1 1 0 0 1 1.482-.014L22.034 17H25a2 2 0 0 0 2-2V9a2 2 0 0 0-2-2h-7.614l.668-.668a.333.333 0 0 0 0-.471l-4.446-4.447z"/></mask><path d="M10.78 1.414l1.414 1.414-1.414-1.414zm2.828 0l-1.414 1.414 1.414-1.414zM.293 11.901l1.414 1.415L.293 11.9zm-.046.158l1.95.444.102-.444-.102-.445-1.95.444zm.046.157l1.414-1.414-1.414 1.414zM7.077 19l-1.414 1.414.585.586h.829v-2zm8.103 0v2h3.145l-1.334-2.848L15.18 19zm.474-3.267l1.495 1.328-1.495-1.328zm1.823-2.05l-1.495-1.33 1.495 1.33zm1.482-.014l1.47-1.357-1.47 1.357zM22.034 17l-1.47 1.357.595.643h.875v-2zM17.386 7l-1.414-1.414L12.558 9h4.828V7zm.669-1.14l1.414-1.414-1.415 1.415zm-5.861-3.032L15.022 0a4 4 0 0 0-5.657 0l2.829 2.828zM1.707 13.315L12.194 2.829 9.365 0-1.122 10.487l2.829 2.829zm.49-1.7a1.831 1.831 0 0 1-.49 1.7l-2.829-2.828a2.169 2.169 0 0 0-.58 2.016l3.9-.889zm-.49-.813c.464.463.624 1.114.49 1.701l-3.9-.889a2.169 2.169 0 0 0 .581 2.016l2.829-2.828zm6.784 6.784l-6.784-6.784-2.829 2.828 6.785 6.784 2.828-2.828zM7.077 21h8.103v-4H7.077v4zm7.082-6.596a5 5 0 0 0-.79 5.444l3.622-1.696a1 1 0 0 1 .158-1.09l-2.99-2.658zm1.823-2.05l-1.822 2.05 2.99 2.657 1.822-2.05-2.99-2.657zm4.447-.042a3 3 0 0 0-4.447.042l2.99 2.657a1 1 0 0 1-1.483.014l2.94-2.713zm3.075 3.331l-3.075-3.331-2.94 2.713 3.076 3.332 2.939-2.714zM25 15h-2.966v4H25v-4zm0 0v4a4 4 0 0 0 4-4h-4zm0-6v6h4V9h-4zm0 0h4a4 4 0 0 0-4-4v4zm-7.614 0H25V5h-7.614v4zm-.746-4.082l-.668.668 2.829 2.828.668-.668-2.829-2.828zm0 2.357a1.667 1.667 0 0 1 0-2.357l2.829 2.828a2.333 2.333 0 0 0 0-3.3L16.64 7.275zm-4.446-4.447l4.446 4.447 2.829-2.829L15.022 0l-2.828 2.828z" fill="#363636" mask="url(#db)"/></svg><svg fill="none" viewBox="0 0 29 24" id="menu-icons-burger" xmlns="http://www.w3.org/2000/svg"><path fill="#363636" d="M0 0h29v2H0zM0 11h29v2H0zM0 22h29v2H0z"/></svg><svg fill="none" viewBox="0 0 34 30" id="menu-info" xmlns="http://www.w3.org/2000/svg"><mask id="fa" fill="#fff"><path fill-rule="evenodd" clip-rule="evenodd" d="M34 15c0 8.284-6.716 15-15 15a14.934 14.934 0 0 1-9.002-3H3c-1.803.041-2.875-1.997-1.82-3.459l3.336-4.625A15.02 15.02 0 0 1 4 15C4 6.716 10.716 0 19 0c8.284 0 15 6.716 15 15z"/></mask><path d="M9.998 27l1.202-1.599-.534-.401h-.668v2zM3 27v-2h-.046L3 27zm-1.82-3.459l-1.622-1.17 1.622 1.17zm3.336-4.625l1.622 1.17.557-.772-.248-.919-1.93.521zM19 32c9.389 0 17-7.611 17-17h-4c0 7.18-5.82 13-13 13v4zM8.797 28.599A16.934 16.934 0 0 0 19 32v-4c-2.93 0-5.628-.967-7.8-2.599l-2.403 3.198zM3 29h6.998v-4H3v4zm-3.442-6.629C-2.464 25.173-.408 29.08 3.046 29l-.092-4c-.059.002-.084-.011-.098-.02a.2.2 0 0 1-.068-.077.2.2 0 0 1-.025-.1c0-.016.004-.044.039-.092l-3.244-2.34zm3.336-4.625l-3.336 4.625 3.244 2.34 3.336-4.625-3.244-2.34zM2 15c0 1.532.203 3.02.585 4.437l3.862-1.042A13.02 13.02 0 0 1 6 15H2zM19-2C9.61-2 2 5.611 2 15h4C6 7.82 11.82 2 19 2v-4zm17 17c0-9.389-7.611-17-17-17v4c7.18 0 13 5.82 13 13h4z" fill="#363636" mask="url(#fa)"/><path d="M10.548 21.173a5.656 5.656 0 0 1 .556-2.366c.338-.802 1.134-1.652 2.39-2.548 1.09-.78 1.796-1.34 2.117-1.677.493-.526.74-1.101.74-1.727 0-.509-.142-.932-.424-1.27-.282-.337-.686-.506-1.212-.506-.72 0-1.21.268-1.47.805-.149.31-.237.803-.265 1.478h-2.3c.04-1.024.225-1.851.557-2.482.63-1.201 1.751-1.801 3.362-1.801 1.272 0 2.285.354 3.038 1.062.752.703 1.129 1.635 1.129 2.797 0 .891-.266 1.683-.797 2.374-.349.46-.922.972-1.719 1.536l-.946.672c-.592.421-.999.725-1.22.914a2.721 2.721 0 0 0-.548.655h5.255v2.084h-8.243zm17.612-2.59h-1.362v2.59h-2.316v-2.59h-4.764v-2.067l4.424-7.305h2.656v7.52h1.362v1.852zm-3.678-1.851v-5.196l-3.013 5.196h3.013z" fill="#363636"/></svg><svg fill="none" viewBox="0 0 32 27" id="menu-payments" xmlns="http://www.w3.org/2000/svg"><mask id="ga" fill="#fff"><path fill-rule="evenodd" clip-rule="evenodd" d="M7 0a3 3 0 0 0-3 3v6h19a2 2 0 0 1 2 2v10h4a3 3 0 0 0 3-3V3a3 3 0 0 0-3-3H7z"/></mask><path d="M4 9H2v2h2V9zm21 12h-2v2h2v-2zM6 3a1 1 0 0 1 1-1v-4a5 5 0 0 0-5 5h4zm0 6V3H2v6h4zm-2 2h19V7H4v4zm19 0h4a4 4 0 0 0-4-4v4zm0 0v10h4V11h-4zm6 8h-4v4h4v-4zm1-1a1 1 0 0 1-1 1v4a5 5 0 0 0 5-5h-4zm0-15v15h4V3h-4zm-1-1a1 1 0 0 1 1 1h4a5 5 0 0 0-5-5v4zM7 2h22v-4H7v4z" fill="#363636" mask="url(#ga)"/><path fill="#363636" d="M4 20h5v2H4zM11 20h5v2h-5zM18 20h5v2h-5z"/><path fill-rule="evenodd" clip-rule="evenodd" d="M2.89 7C1.301 7 0 8.283 0 9.866v14.268C0 25.718 1.294 27 2.89 27h21.22c1.588 0 2.89-1.283 2.89-2.866V9.866C27 8.282 25.706 7 24.11 7H2.89zM2 24.05V9.95c0-.523.434-.95.955-.95h21.09c.526 0 .955.423.955.95v14.1c0 .523-.434.95-.955.95H2.955A.951.951 0 0 1 2 24.05z" fill="#363636"/><path fill-rule="evenodd" clip-rule="evenodd" d="M6.5 17a2.5 2.5 0 1 0 0-5 2.5 2.5 0 0 0 0 5z" fill="#363636"/></svg><svg fill="none" viewBox="0 0 30 30" id="menu-settings-info" xmlns="http://www.w3.org/2000/svg"><path d="M29 15c0 7.732-6.268 14-14 14S1 22.732 1 15 7.268 1 15 1s14 6.268 14 14z" stroke="#363636" stroke-width="2"/><mask id="ha" fill="#fff"><path fill-rule="evenodd" clip-rule="evenodd" d="M25.454 23.636c0-2.12-4.68-5.454-10.454-5.454-5.774 0-10.455 3.179-10.455 5.454"/></mask><path d="M27.454 23.636c0-1.226-.643-2.286-1.31-3.056-.706-.815-1.659-1.563-2.747-2.195-2.181-1.267-5.14-2.203-8.397-2.203v4c2.516 0 4.785.73 6.388 1.662.803.466 1.381.95 1.733 1.355.391.452.334.603.334.437h4zM15 16.182c-3.239 0-6.193.887-8.383 2.137-1.094.623-2.056 1.37-2.77 2.204-.687.803-1.302 1.877-1.302 3.113h4c0 .1-.03-.078.341-.511.345-.403.914-.876 1.712-1.332 1.594-.909 3.866-1.611 6.402-1.611v-4z" fill="#363636" mask="url(#ha)"/><path d="M19.91 9.61c0 1.147-.518 2.632-1.403 3.833-.894 1.212-1.996 1.92-3.053 1.92-1.056 0-2.158-.708-3.052-1.92C11.518 12.242 11 10.757 11 9.61c0-2.176 1.923-4.065 4.454-4.065 2.532 0 4.455 1.889 4.455 4.065z" stroke="#363636" stroke-width="2"/></svg><svg fill="none" viewBox="0 0 18 19" id="search" xmlns="http://www.w3.org/2000/svg"><path clip-rule="evenodd" d="M7 13A6 6 0 1 0 7 1a6 6 0 0 0 0 12z" stroke="#363636" stroke-width="2"/><path d="M12 12l3.536 3.536" stroke="#363636" stroke-width="3" stroke-linecap="round" stroke-linejoin="round"/></svg></svg>